# xmcd CD database file
#
# Track frame offsets:
#	150
#	18502
#	28249
#	37375
#	41513
#	57135
#	63622
#	72534
#	82822
#	87741
#	114562
#	127615
#	132461
#	150719
#	161447
#	168597
#	176573
#	185147
#	202158
#	217349
#	231693
#	239204
#	244388
#	279393
#
# Disc length: 3883 seconds
#
# Revision: 1
# Processed by: cddbd v1.5.2PL0 Copyright (c) Steve Scherf et al.
# Submitted via: CDex 1.70beta2
#
DISCID=7e0f2918
DTITLE=The Lowest Note - The Work - Bill Gilonis - Tim Hodgkinson - WOOF 7 Inches
DYEAR=2004
DGENRE=Progressive Rock
TTITLE0=Bill Gilonis and Tim Hodgkinson - The Love Of Ants
TTITLE1=Bill Gilonis and Tim Hodgkinson - Night By The Sea
TTITLE2=Bill Gilonis and Tim Hodgkinson - Ratlike Stones Grow Useless Wings
TTITLE3=Bill Gilonis and Tim Hodgkinson - November
TTITLE4=Bill Gilonis and Tim Hodgkinson - Pigvac
TTITLE5=Bill Gilonis and Tim Hodgkinson - Tribe
TTITLE6=Bill Gilonis and Tim Hodgkinson - You And A River
TTITLE7=Bill Gilonis and Tim Hodgkinson - December
TTITLE8=The Work - With Wings Pressed Back
TTITLE9=The Work - I Hate America
TTITLE10=The Work - Fingers And Toes
TTITLE11=The Work - Duty
TTITLE12=The Work - Houdini
TTITLE13=The Work - Scream Circle
TTITLE14=The Lowest Note - Thusly Routed We Gambol
TTITLE15=The Lowest Note - Jane
TTITLE16=The Lowest Note - Meddle-a-Beadle
TTITLE17=The Lowest Note - Trial By Silhoutte
TTITLE18=The Lowest Note - Piggy Bank
TTITLE19=The Lowest Note - Lambeth Salt
TTITLE20=The Lowest Note - Snows Past
TTITLE21=The Lowest Note - Finihounds
TTITLE22=The Lowest Note - Ramshackle Medley
TTITLE23=The Lowest Note - Nalwabi
EXTD=YEAR: 2004
EXTT0=
EXTT1=
EXTT2=
EXTT3=
EXTT4=
EXTT5=
EXTT6=
EXTT7=
EXTT8=
EXTT9=
EXTT10=
EXTT11=
EXTT12=
EXTT13=
EXTT14=
EXTT15=
EXTT16=
EXTT17=
EXTT18=
EXTT19=
EXTT20=
EXTT21=
EXTT22=
EXTT23=
PLAYORDER=
